<svg xmlns="http://www.w3.org/2000/svg" width="800" height="380" viewBox="0 0 800 380">
  <style>
    .frame{fill:#fff;stroke:#111;stroke-width:3}.card{fill:#fafafa;stroke:#aaa}.line{stroke:#111;stroke-width:2;fill:none}.dark{fill:#2b2b2b}.txt{font-family:Arial,sans-serif;fill:#111}.label{font-size:18px;font-weight:700}.small{font-size:13px}.btn{font-size:16px;font-weight:700;fill:#fff}
  </style>
  <text class="txt label" x="0" y="24">4. ROOM LOBBY</text>
  <rect class="frame" x="18" y="40" width="760" height="300" rx="18"/>
  <text class="txt" x="40" y="80" font-size="34">&lt;</text>
  <text class="txt label" x="400" y="72" text-anchor="middle">ROOM A7KQ</text>
  <text class="txt label" x="400" y="100" text-anchor="middle">4 / 4</text>
  <text class="txt" x="735" y="80" font-size="22">home</text>
  <g>
    <rect class="card" x="90" y="125" width="135" height="150" rx="6"/><text class="txt label" x="157" y="150" text-anchor="middle">P1</text><rect class="dark" x="132" y="160" width="50" height="24" rx="3"/><text class="btn" x="157" y="177" text-anchor="middle" font-size="11">HOST</text><circle fill="#999" cx="157" cy="205" r="20"/><path class="card" d="M122 260 Q157 220 192 260"/><text class="txt small" x="157" y="272" text-anchor="middle">check Ready</text>
    <rect class="card" x="250" y="125" width="135" height="150" rx="6"/><text class="txt label" x="317" y="150" text-anchor="middle">P2</text><circle fill="#999" cx="317" cy="205" r="20"/><path class="card" d="M282 260 Q317 220 352 260"/><text class="txt small" x="317" y="272" text-anchor="middle">check Ready</text>
    <rect class="card" x="410" y="125" width="135" height="150" rx="6"/><text class="txt label" x="477" y="150" text-anchor="middle">P3</text><circle fill="#999" cx="477" cy="205" r="20"/><path class="card" d="M442 260 Q477 220 512 260"/><text class="txt small" x="477" y="272" text-anchor="middle">check Ready</text>
    <rect class="card" x="570" y="125" width="135" height="150" rx="6"/><text class="txt label" x="637" y="150" text-anchor="middle">P4</text><circle fill="#999" cx="637" cy="205" r="20"/><path class="card" d="M602 260 Q637 220 672 260"/><text class="txt small" x="637" y="272" text-anchor="middle">check Ready</text>
  </g>
  <text class="txt small" x="60" y="320">chat</text>
  <text class="txt small" x="400" y="320" text-anchor="middle">All players ready.</text>
  <rect class="dark" x="600" y="300" width="145" height="34" rx="4"/><text class="btn" x="672" y="322" text-anchor="middle">START MATCH</text>
</svg>
